<?xml version="1.0" encoding="UTF-8"?>
<svg xmlns="http://www.w3.org/2000/svg" xmlns:xlink="http://www.w3.org/1999/xlink" width="300px" height="242px" viewBox="0 0 299 242" version="1.1">
<defs>
<filter id="alpha" filterUnits="objectBoundingBox" x="0%" y="0%" width="100%" height="100%">
  <feColorMatrix type="matrix" in="SourceGraphic" values="0 0 0 0 1 0 0 0 0 1 0 0 0 0 1 0 0 0 1 0"/>
</filter>
<mask id="mask0">
  <g filter="url(#alpha)">
<rect x="0" y="0" width="299" height="242" style="fill:rgb(0%,0%,0%);fill-opacity:0.101961;stroke:none;"/>
  </g>
</mask>
<clipPath id="clip1">
  <rect x="0" y="0" width="299" height="242"/>
</clipPath>
<g id="surface5" clip-path="url(#clip1)">
<path style=" stroke:none;fill-rule:nonzero;fill:rgb(0%,0%,0%);fill-opacity:1;" d="M 282.0625 71.441406 C 282.0625 37.214844 255.863281 9.121094 222.464844 6.191406 C 224.367188 6.023438 226.292969 5.933594 228.242188 5.933594 C 264.347656 5.933594 293.617188 35.261719 293.617188 71.441406 C 293.617188 107.625 264.347656 136.953125 228.242188 136.953125 C 226.296875 136.953125 224.375 136.863281 222.472656 136.695312 C 255.867188 133.757812 282.0625 105.667969 282.0625 71.441406 Z M 282.0625 71.441406 "/>
</g>
<mask id="mask1">
  <g filter="url(#alpha)">
<rect x="0" y="0" width="299" height="242" style="fill:rgb(0%,0%,0%);fill-opacity:0.101961;stroke:none;"/>
  </g>
</mask>
<clipPath id="clip2">
  <rect x="0" y="0" width="299" height="242"/>
</clipPath>
<g id="surface8" clip-path="url(#clip2)">
<path style=" stroke:none;fill-rule:nonzero;fill:rgb(0%,0%,0%);fill-opacity:1;" d="M 23.355469 154.820312 C 23.355469 120.589844 49.550781 92.5 82.949219 89.566406 C 81.046875 89.398438 79.121094 89.308594 77.171875 89.308594 C 41.066406 89.308594 11.796875 118.640625 11.796875 154.820312 C 11.796875 191 41.066406 220.332031 77.171875 220.332031 C 79.117188 220.332031 81.039062 220.238281 82.941406 220.070312 C 49.546875 217.136719 23.355469 189.046875 23.355469 154.820312 Z M 23.355469 154.820312 "/>
</g>
<mask id="mask2">
  <g filter="url(#alpha)">
<rect x="0" y="0" width="299" height="242" style="fill:rgb(0%,0%,0%);fill-opacity:0.101961;stroke:none;"/>
  </g>
</mask>
<clipPath id="clip3">
  <rect x="0" y="0" width="299" height="242"/>
</clipPath>
<g id="surface11" clip-path="url(#clip3)">
<path style=" stroke:none;fill-rule:nonzero;fill:rgb(0%,0%,0%);fill-opacity:1;" d="M 224.390625 67.480469 C 224.238281 68.296875 224.066406 69.144531 223.578125 69.816406 C 223.011719 70.589844 222.09375 71.03125 221.488281 71.769531 C 220.574219 72.882812 220.519531 74.449219 220.519531 75.890625 C 220.515625 77.21875 220.542969 78.636719 221.28125 79.738281 C 221.804688 80.421875 222.457031 81 223.203125 81.4375 C 225.972656 83.308594 228.96875 85.210938 232.308594 85.273438 C 233.691406 85.300781 235.175781 84.941406 236.089844 83.894531 C 236.480469 83.40625 236.789062 82.851562 237.003906 82.261719 C 237.859375 80.148438 238.375 77.917969 238.539062 75.648438 C 238.660156 74.578125 238.5625 73.496094 238.246094 72.46875 C 237.839844 71.335938 237.019531 70.402344 236.476562 69.328125 C 235.835938 68.050781 235.601562 66.605469 235.804688 65.1875 C 235.832031 65.089844 235.824219 64.984375 235.78125 64.886719 C 235.691406 64.785156 235.558594 64.730469 235.421875 64.742188 L 228.796875 64.265625 C 228.179688 64.234375 227.566406 64.164062 226.957031 64.054688 C 226.601562 63.980469 225.65625 63.472656 225.316406 63.609375 C 224.6875 63.859375 224.519531 66.800781 224.390625 67.480469 Z M 224.390625 67.480469 "/>
</g>
<mask id="mask3">
  <g filter="url(#alpha)">
<rect x="0" y="0" width="299" height="242" style="fill:rgb(0%,0%,0%);fill-opacity:0.101961;stroke:none;"/>
  </g>
</mask>
<clipPath id="clip4">
  <rect x="0" y="0" width="299" height="242"/>
</clipPath>
<g id="surface14" clip-path="url(#clip4)">
<path style=" stroke:none;fill-rule:nonzero;fill:rgb(0%,0%,0%);fill-opacity:1;" d="M 209.402344 116.394531 C 211.839844 117.160156 222.136719 122.464844 223.902344 124.316406 C 223.667969 124.402344 215.640625 119.894531 215.398438 119.824219 C 213.191406 119.214844 211.027344 118.453125 208.929688 117.539062 C 208.511719 117.34375 206.210938 116.433594 206.316406 115.90625 C 206.433594 115.308594 208.96875 116.257812 209.402344 116.394531 Z M 209.402344 116.394531 "/>
</g>
<mask id="mask4">
  <g filter="url(#alpha)">
<rect x="0" y="0" width="299" height="242" style="fill:rgb(0%,0%,0%);fill-opacity:0.101961;stroke:none;"/>
  </g>
</mask>
<clipPath id="clip5">
  <rect x="0" y="0" width="299" height="242"/>
</clipPath>
<g id="surface17" clip-path="url(#clip5)">
<path style=" stroke:none;fill-rule:nonzero;fill:rgb(0%,0%,0%);fill-opacity:1;" d="M 251.582031 115.390625 C 249.703125 116.800781 247.269531 118.101562 245.410156 119.550781 C 244.773438 120.046875 234.1875 126.011719 234.035156 126.804688 C 235.773438 127.097656 246.832031 119.34375 248.414062 118.570312 C 249.996094 117.796875 251.402344 116.707031 252.789062 115.621094 C 253.144531 115.347656 254.648438 114.515625 253.628906 114.207031 C 253.058594 114.035156 252.003906 115.105469 251.582031 115.390625 Z M 251.582031 115.390625 "/>
</g>
<mask id="mask5">
  <g filter="url(#alpha)">
<rect x="0" y="0" width="299" height="242" style="fill:rgb(0%,0%,0%);fill-opacity:0.2;stroke:none;"/>
  </g>
</mask>
<clipPath id="clip6">
  <rect x="0" y="0" width="299" height="242"/>
</clipPath>
<g id="surface20" clip-path="url(#clip6)">
<path style=" stroke:none;fill-rule:nonzero;fill:rgb(0%,0%,0%);fill-opacity:1;" d="M 44.617188 191.800781 L 36.875 196.339844 L 28.027344 182.707031 L 36.566406 193.9375 Z M 44.617188 191.800781 "/>
</g>
</defs>
<g id="surface1">
<path style=" stroke:none;fill-rule:nonzero;fill:rgb(24.705882%,23.921569%,33.72549%);fill-opacity:1;" d="M 196.726562 135.441406 C 190.417969 139.234375 179.183594 143.984375 167.699219 139.101562 L 160.277344 135.945312 L 175.152344 119.238281 C 150.554688 92.0625 150.597656 50.605469 175.25 23.480469 C 199.898438 -3.644531 241.085938 -7.554688 270.382812 14.453125 C 299.675781 36.457031 307.488281 77.167969 288.421875 108.484375 C 269.355469 139.804688 229.65625 151.476562 196.726562 135.441406 Z M 168.226562 71.300781 C 168.160156 87.800781 174.972656 103.578125 187.023438 114.824219 L 191.125 118.691406 L 181.765625 129.203125 C 186.640625 128.210938 190.886719 125.570312 193.039062 124.035156 L 195.996094 121.929688 L 199.171875 123.675781 C 207.957031 128.496094 217.808594 131.023438 227.824219 131.019531 C 260.683594 131.019531 287.417969 104.230469 287.417969 71.300781 C 287.417969 38.371094 260.683594 11.582031 227.824219 11.582031 C 194.960938 11.582031 168.226562 38.371094 168.226562 71.300781 Z M 168.226562 71.300781 "/>
<path style=" stroke:none;fill-rule:nonzero;fill:rgb(42.352941%,38.823529%,100%);fill-opacity:1;" d="M 162.449219 71.300781 C 162.449219 35.121094 191.71875 5.789062 227.824219 5.789062 C 263.929688 5.789062 293.199219 35.121094 293.199219 71.300781 C 293.199219 107.480469 263.929688 136.8125 227.824219 136.8125 C 216.835938 136.828125 206.019531 134.054688 196.390625 128.753906 C 191.871094 131.972656 180.847656 138.402344 169.957031 133.773438 L 183.066406 119.046875 C 169.890625 106.675781 162.425781 89.390625 162.449219 71.300781 Z M 162.449219 71.300781 "/>
<use xlink:href="#surface5" mask="url(#mask0)"/>
<path style=" stroke:none;fill-rule:nonzero;fill:rgb(24.705882%,23.921569%,33.72549%);fill-opacity:1;" d="M 77.171875 226.453125 C 43.507812 226.46875 14.425781 202.859375 7.453125 169.855469 C 0.480469 136.851562 17.523438 103.460938 48.308594 89.808594 C 79.09375 76.152344 115.214844 85.960938 134.910156 113.320312 C 154.601562 140.683594 152.492188 178.125 129.84375 203.085938 L 144.71875 219.796875 L 137.296875 222.953125 C 125.8125 227.832031 114.578125 223.082031 108.269531 219.292969 C 98.578125 224 87.945312 226.449219 77.171875 226.453125 Z M 77.171875 95.429688 C 44.3125 95.429688 17.574219 122.222656 17.574219 155.152344 C 17.574219 188.082031 44.3125 214.871094 77.171875 214.871094 C 87.1875 214.871094 97.039062 212.347656 105.824219 207.527344 L 109 205.777344 L 111.957031 207.882812 C 114.109375 209.417969 118.355469 212.0625 123.230469 213.054688 L 113.871094 202.539062 L 117.972656 198.675781 C 130.023438 187.429688 136.835938 171.652344 136.769531 155.152344 C 136.769531 122.222656 110.035156 95.429688 77.171875 95.429688 Z M 77.171875 95.429688 "/>
<path style=" stroke:none;fill-rule:nonzero;fill:rgb(42.352941%,38.823529%,100%);fill-opacity:1;" d="M 142.546875 155.152344 C 142.546875 118.96875 113.277344 89.640625 77.171875 89.640625 C 41.066406 89.640625 11.796875 118.96875 11.796875 155.152344 C 11.796875 191.332031 41.066406 220.660156 77.171875 220.660156 C 88.160156 220.675781 98.976562 217.90625 108.605469 212.601562 C 113.125 215.824219 124.148438 222.25 135.039062 217.621094 L 121.929688 202.894531 C 135.101562 190.527344 142.570312 173.238281 142.546875 155.152344 Z M 142.546875 155.152344 "/>
<use xlink:href="#surface8" mask="url(#mask1)"/>
<path style=" stroke:none;fill-rule:nonzero;fill:rgb(18.431373%,18.039216%,25.490196%);fill-opacity:1;" d="M 243.171875 50.488281 C 238.894531 43.246094 230.429688 42.90625 230.429688 42.90625 C 230.429688 42.90625 222.183594 41.851562 216.894531 52.882812 C 211.964844 63.164062 205.160156 73.089844 215.796875 75.496094 L 217.71875 69.503906 L 218.910156 75.941406 C 220.425781 76.050781 221.945312 76.078125 223.464844 76.019531 C 234.859375 75.652344 245.710938 76.128906 245.359375 72.03125 C 244.894531 66.585938 247.285156 57.457031 243.171875 50.488281 Z M 243.171875 50.488281 "/>
<path style=" stroke:none;fill-rule:nonzero;fill:rgb(18.431373%,18.039216%,25.490196%);fill-opacity:1;" d="M 215.191406 113.914062 C 215.066406 114.710938 214.882812 115.496094 214.644531 116.265625 C 214.378906 117.019531 213.964844 117.71875 213.71875 118.480469 C 212.941406 120.910156 214.019531 123.617188 215.75 125.492188 C 217.246094 127.113281 219.179688 128.261719 221.316406 128.804688 C 222.886719 129.140625 224.492188 129.3125 226.101562 129.308594 C 230.546875 129.460938 235.105469 129.59375 239.320312 128.164062 C 240.652344 127.699219 241.9375 127.113281 243.160156 126.414062 C 243.546875 126.230469 243.890625 125.960938 244.160156 125.628906 C 244.441406 125.140625 244.566406 124.578125 244.519531 124.015625 C 244.507812 122.125 244.125 120.246094 244.21875 118.359375 C 244.265625 117.316406 244.460938 116.269531 244.367188 115.230469 C 244.09375 112.804688 242.332031 110.8125 239.960938 110.253906 C 238.765625 109.996094 237.527344 110.136719 236.308594 110.253906 C 233.152344 110.558594 229.976562 110.699219 226.804688 110.679688 C 223.5625 110.660156 220.339844 110.164062 217.113281 110.109375 C 216.160156 110.09375 216.179688 110.390625 215.875 111.316406 C 215.597656 112.167969 215.367188 113.035156 215.191406 113.914062 Z M 215.191406 113.914062 "/>
<path style=" stroke:none;fill-rule:nonzero;fill:rgb(62.745098%,38.039216%,41.568627%);fill-opacity:1;" d="M 224.390625 67.269531 C 224.238281 68.089844 224.066406 68.9375 223.578125 69.609375 C 223.011719 70.382812 222.09375 70.824219 221.488281 71.5625 C 220.574219 72.675781 220.519531 74.242188 220.519531 75.683594 C 220.515625 77.011719 220.542969 78.429688 221.28125 79.53125 C 221.804688 80.214844 222.457031 80.792969 223.203125 81.226562 C 225.972656 83.101562 228.96875 85.003906 232.308594 85.066406 C 233.691406 85.09375 235.175781 84.734375 236.089844 83.6875 C 236.480469 83.199219 236.789062 82.644531 237.003906 82.054688 C 237.859375 79.941406 238.375 77.710938 238.539062 75.441406 C 238.660156 74.371094 238.5625 73.289062 238.246094 72.261719 C 237.839844 71.128906 237.019531 70.195312 236.476562 69.121094 C 235.835938 67.84375 235.601562 66.398438 235.804688 64.980469 C 235.832031 64.882812 235.824219 64.777344 235.78125 64.679688 C 235.691406 64.578125 235.558594 64.523438 235.421875 64.535156 L 228.796875 64.058594 C 228.179688 64.027344 227.566406 63.957031 226.957031 63.847656 C 226.601562 63.773438 225.65625 63.265625 225.316406 63.402344 C 224.6875 63.652344 224.519531 66.59375 224.390625 67.269531 Z M 224.390625 67.269531 "/>
<use xlink:href="#surface11" mask="url(#mask2)"/>
<path style=" stroke:none;fill-rule:nonzero;fill:rgb(62.745098%,38.039216%,41.568627%);fill-opacity:1;" d="M 240.445312 58.421875 C 240.445312 63.800781 236.09375 68.160156 230.726562 68.160156 C 225.359375 68.160156 221.007812 63.800781 221.007812 58.421875 C 221.007812 53.042969 225.359375 48.683594 230.726562 48.683594 C 236.09375 48.683594 240.445312 53.042969 240.445312 58.421875 Z M 240.445312 58.421875 "/>
<path style=" stroke:none;fill-rule:nonzero;fill:rgb(100%,100%,100%);fill-opacity:1;" d="M 225.753906 80.234375 C 226.234375 80.792969 226.8125 81.257812 227.460938 81.601562 C 228.136719 81.882812 228.863281 82.019531 229.59375 82.007812 C 231.347656 82.058594 233.246094 81.738281 234.464844 80.476562 C 236.035156 78.847656 235.984375 76.222656 237.214844 74.324219 C 237.316406 74.152344 237.449219 74.003906 237.613281 73.890625 C 237.820312 73.777344 238.050781 73.726562 238.289062 73.734375 C 239.84375 73.722656 241.199219 74.730469 242.421875 75.695312 C 242.996094 76.09375 243.488281 76.597656 243.875 77.179688 C 244.117188 77.652344 244.28125 78.160156 244.367188 78.683594 C 244.972656 81.652344 245.167969 84.6875 245.363281 87.710938 C 245.472656 89.382812 245.578125 91.054688 245.570312 92.726562 C 245.542969 98.238281 244.265625 103.660156 242.996094 109.023438 C 242.832031 109.714844 242.605469 110.488281 241.980469 110.820312 C 241.699219 110.945312 241.398438 111.019531 241.09375 111.035156 C 237.449219 111.464844 233.800781 111.894531 230.132812 111.949219 C 228.703125 111.972656 227.273438 111.9375 225.84375 111.847656 C 225.597656 111.84375 225.351562 111.800781 225.121094 111.71875 C 224.804688 111.566406 224.53125 111.335938 224.332031 111.050781 C 222.347656 108.542969 222.230469 105.082031 222.246094 101.882812 C 222.273438 94.066406 222.554688 86.257812 223.082031 78.449219 C 223.125 77.808594 223.132812 77.023438 222.671875 76.519531 C 223.570312 77.855469 224.605469 79.101562 225.753906 80.234375 Z M 225.753906 80.234375 "/>
<path style=" stroke:none;fill-rule:nonzero;fill:rgb(100%,100%,100%);fill-opacity:1;" d="M 223.695312 68.992188 C 223.367188 69.585938 220.949219 71.0625 220.480469 71.558594 C 217.871094 74.316406 213.105469 74.210938 210.71875 77.164062 C 209.878906 78.203125 209.441406 79.507812 209.121094 80.808594 C 208.667969 82.644531 208.425781 84.644531 209.183594 86.375 C 209.917969 88.042969 211.457031 89.195312 212.503906 90.679688 C 213.652344 92.316406 214.167969 94.296875 214.664062 96.234375 C 215.027344 97.664062 215.394531 99.128906 215.253906 100.597656 C 215.09375 102.265625 214.285156 103.792969 213.808594 105.402344 C 213.332031 107.011719 213.25 108.925781 214.351562 110.191406 C 215.160156 111.117188 216.429688 111.488281 217.640625 111.695312 C 219.195312 111.925781 220.761719 112.0625 222.328125 112.101562 C 223.714844 112.164062 225.242188 112.175781 226.308594 111.285156 C 227.148438 110.582031 227.515625 109.441406 227.5625 108.347656 C 227.609375 107.25 227.382812 106.164062 227.238281 105.078125 C 227.089844 103.949219 227.035156 102.8125 226.988281 101.675781 C 226.773438 96.582031 226.746094 91.480469 226.898438 86.375 C 226.976562 85.316406 226.925781 84.25 226.746094 83.199219 C 226.449219 81.835938 225.710938 80.613281 225.097656 79.359375 C 223.871094 76.996094 223.3125 74.34375 223.488281 71.683594 C 223.675781 68.953125 224.863281 66.871094 223.695312 68.992188 Z M 223.695312 68.992188 "/>
<path style=" stroke:none;fill-rule:nonzero;fill:rgb(100%,100%,100%);fill-opacity:1;" d="M 237.34375 69.199219 C 237.84375 69.710938 239.542969 69.882812 240.179688 70.214844 C 240.777344 70.492188 241.402344 70.707031 242.042969 70.859375 C 244.363281 71.53125 246.570312 72.546875 248.589844 73.871094 C 249.011719 74.117188 249.382812 74.4375 249.683594 74.820312 C 250.003906 75.339844 250.210938 75.925781 250.289062 76.53125 C 250.601562 78.078125 250.914062 79.644531 250.84375 81.21875 C 250.769531 82.890625 250.269531 84.511719 249.769531 86.109375 L 247.90625 92.078125 C 246.515625 96.535156 245.117188 101.035156 244.722656 105.6875 C 244.507812 108.265625 244.605469 110.859375 245.011719 113.417969 C 245.089844 113.667969 245.054688 113.941406 244.917969 114.164062 C 244.792969 114.285156 244.632812 114.359375 244.460938 114.375 C 243.5625 114.515625 242.691406 114.054688 241.875 113.648438 C 239.386719 112.40625 236.726562 111.535156 233.984375 111.0625 C 235.058594 109.511719 235.882812 107.804688 236.4375 106 C 236.75 104.855469 236.996094 103.691406 237.175781 102.519531 L 238.042969 97.496094 C 238.394531 95.660156 238.644531 93.804688 238.789062 91.9375 C 238.851562 91.238281 238.8125 90.535156 238.667969 89.847656 C 238.464844 89.191406 238.203125 88.558594 237.875 87.957031 C 236.445312 84.980469 235.777344 81.582031 236.339844 78.328125 C 236.585938 76.902344 237.0625 75.476562 236.863281 74.042969 C 236.671875 72.667969 236.871094 71.597656 236.519531 70.234375 C 235.070312 64.640625 236.402344 68.230469 237.34375 69.199219 Z M 237.34375 69.199219 "/>
<path style=" stroke:none;fill-rule:nonzero;fill:rgb(100%,100%,100%);fill-opacity:1;" d="M 210.695312 81.875 C 210.042969 83.226562 208.953125 84.382812 208.582031 85.839844 C 208.4375 86.519531 208.378906 87.214844 208.398438 87.910156 C 208.335938 88.957031 208.4375 90.011719 208.707031 91.027344 C 208.914062 91.667969 209.25 92.261719 209.492188 92.890625 C 209.828125 93.769531 209.980469 94.710938 209.933594 95.652344 C 209.867188 96.957031 209.425781 98.222656 209.390625 99.53125 C 209.335938 101.582031 210.285156 103.515625 211.210938 105.347656 C 211.679688 104.179688 212.644531 103.277344 213.839844 102.882812 C 215.035156 102.492188 216.34375 102.648438 217.414062 103.3125 C 217.625 103.050781 217.726562 102.71875 217.691406 102.382812 C 217.761719 100 217.828125 97.617188 217.890625 95.234375 C 217.988281 91.550781 218.085938 87.816406 217.238281 84.230469 C 216.859375 82.609375 216.261719 80.996094 215.175781 79.742188 C 214.601562 79.082031 212.652344 77.339844 211.710938 78.078125 C 211.289062 78.414062 211.386719 79.320312 211.320312 79.777344 C 211.21875 80.503906 211.007812 81.210938 210.695312 81.875 Z M 210.695312 81.875 "/>
<path style=" stroke:none;fill-rule:nonzero;fill:rgb(100%,100%,100%);fill-opacity:1;" d="M 251.035156 77.96875 C 251.296875 78.945312 251.410156 79.957031 251.367188 80.96875 C 251.382812 83.027344 251.355469 85.085938 251.285156 87.144531 C 251.296875 88.203125 251.164062 89.253906 250.886719 90.273438 C 250.675781 90.9375 250.351562 91.558594 250.132812 92.21875 C 249.484375 94.199219 249.839844 96.34375 249.894531 98.429688 C 249.933594 99.101562 249.875 99.777344 249.722656 100.4375 C 249.378906 101.730469 248.457031 102.773438 247.8125 103.941406 C 247.199219 105.054688 246.832031 106.300781 246.101562 107.335938 C 245.371094 108.375 244.105469 109.195312 242.878906 108.878906 C 241.949219 108.636719 241.289062 107.8125 240.832031 106.964844 C 239.835938 105.105469 239.496094 102.964844 239.863281 100.882812 C 240.324219 98.355469 241.804688 96.113281 242.339844 93.597656 C 243.074219 90.144531 241.957031 86.585938 241.992188 83.054688 C 241.976562 82.5 242.050781 81.949219 242.214844 81.421875 C 242.492188 80.613281 243.097656 79.96875 243.652344 79.324219 C 244.347656 78.515625 244.992188 77.667969 245.585938 76.78125 C 245.984375 76.183594 246.527344 74.65625 247.230469 74.527344 C 248.808594 74.242188 250.644531 76.75 251.035156 77.96875 Z M 251.035156 77.96875 "/>
<path style=" stroke:none;fill-rule:nonzero;fill:rgb(18.431373%,18.039216%,25.490196%);fill-opacity:1;" d="M 202.511719 112.378906 C 201.640625 112.160156 200.742188 112.0625 199.84375 112.09375 C 197.933594 112.199219 196.164062 113.121094 194.980469 114.628906 C 193.796875 116.132812 193.316406 118.078125 193.660156 119.960938 C 193.878906 120.972656 194.234375 121.945312 194.71875 122.855469 C 195.425781 124.296875 196.273438 125.730469 197.585938 126.65625 C 198.375 127.160156 199.222656 127.566406 200.113281 127.863281 L 207.015625 130.464844 C 208.03125 130.847656 209.046875 131.234375 210.070312 131.589844 C 215.222656 133.371094 220.589844 134.441406 226.03125 134.765625 C 227.6875 134.921875 229.355469 134.839844 230.984375 134.515625 C 231.378906 134.464844 231.742188 134.269531 232 133.964844 C 232.132812 133.738281 232.210938 133.480469 232.226562 133.214844 L 232.652344 130.238281 C 232.746094 129.824219 232.734375 129.390625 232.617188 128.980469 C 232.421875 128.480469 231.933594 128.167969 231.46875 127.898438 C 226.933594 125.289062 221.636719 123.847656 217.816406 120.261719 C 216.917969 119.421875 216.164062 118.082031 215.074219 117.511719 C 213.835938 116.859375 212.375 116.488281 211.097656 115.890625 C 208.296875 114.582031 205.546875 113.078125 202.511719 112.378906 Z M 202.511719 112.378906 "/>
<use xlink:href="#surface14" mask="url(#mask3)"/>
<path style=" stroke:none;fill-rule:nonzero;fill:rgb(62.745098%,38.039216%,41.568627%);fill-opacity:1;" d="M 239.828125 136.3125 C 239.96875 136.324219 240.105469 136.28125 240.214844 136.199219 C 240.316406 136.070312 240.359375 135.910156 240.335938 135.753906 L 240.324219 131.695312 C 239.160156 131.136719 237.859375 130.960938 236.582031 130.789062 L 230.613281 129.988281 C 230.75 130.007812 229.683594 132.566406 229.847656 132.90625 C 230.136719 133.507812 232.34375 134.039062 232.96875 134.324219 C 235.136719 135.3125 237.386719 136.398438 239.828125 136.3125 Z M 239.828125 136.3125 "/>
<path style=" stroke:none;fill-rule:nonzero;fill:rgb(62.745098%,38.039216%,41.568627%);fill-opacity:1;" d="M 221.113281 131.679688 C 219.988281 131.859375 218.730469 132.019531 218 132.898438 C 217.074219 134.011719 217.46875 135.671875 217.910156 137.054688 C 217.964844 137.414062 218.160156 137.734375 218.457031 137.949219 C 218.753906 138.160156 219.121094 138.242188 219.476562 138.175781 C 220.503906 138.242188 221.597656 138.292969 222.496094 137.789062 C 222.902344 137.519531 223.292969 137.226562 223.667969 136.914062 C 224.332031 136.472656 225.058594 136.140625 225.824219 135.929688 C 227.230469 135.484375 228.683594 135.183594 230.152344 135.035156 C 230.730469 135.007812 231.300781 134.90625 231.855469 134.734375 C 232.414062 134.550781 232.859375 134.121094 233.054688 133.566406 C 233.261719 132.828125 232.835938 132.078125 232.425781 131.429688 C 231.953125 130.582031 231.339844 129.824219 230.609375 129.183594 C 229.5 128.316406 228.949219 128.980469 227.828125 129.535156 C 225.710938 130.582031 223.445312 131.304688 221.113281 131.679688 Z M 221.113281 131.679688 "/>
<path style=" stroke:none;fill-rule:nonzero;fill:rgb(18.431373%,18.039216%,25.490196%);fill-opacity:1;" d="M 218.167969 132.695312 L 211.015625 130.578125 C 210.160156 130.28125 209.261719 130.105469 208.355469 130.0625 C 207.4375 130.023438 206.546875 130.386719 205.910156 131.050781 C 205.355469 131.703125 205.199219 132.597656 205.058594 133.441406 L 204.765625 135.25 C 204.566406 136.164062 204.511719 137.097656 204.597656 138.027344 C 204.695312 138.96875 205.21875 139.8125 206.019531 140.316406 C 207.007812 140.859375 208.222656 140.59375 209.328125 140.367188 C 211.558594 139.910156 213.828125 139.667969 216.105469 139.640625 C 216.960938 139.628906 217.859375 139.640625 218.613281 139.238281 C 219.507812 138.707031 220.078125 137.769531 220.144531 136.734375 C 220.285156 135.191406 219.769531 133.171875 218.167969 132.695312 Z M 218.167969 132.695312 "/>
<path style=" stroke:none;fill-rule:nonzero;fill:rgb(18.431373%,18.039216%,25.490196%);fill-opacity:1;" d="M 242.640625 130.851562 C 243.570312 130.6875 244.386719 130.160156 245.273438 129.847656 C 246.527344 129.410156 247.878906 129.410156 249.207031 129.414062 C 249.691406 129.371094 250.183594 129.46875 250.613281 129.699219 C 251.199219 130.085938 251.347656 130.867188 251.445312 131.5625 L 252.046875 135.757812 C 252.207031 136.539062 252.222656 137.347656 252.09375 138.136719 C 251.917969 138.914062 251.390625 139.660156 250.621094 139.863281 C 249.683594 140.105469 248.769531 139.507812 247.886719 139.113281 C 245.679688 138.132812 243.113281 138.382812 240.8125 137.648438 C 240.367188 137.558594 239.980469 137.28125 239.753906 136.890625 C 239.671875 136.65625 239.644531 136.410156 239.671875 136.164062 C 239.710938 134.816406 239.425781 132.972656 239.832031 131.683594 C 240.195312 130.527344 241.605469 130.851562 242.640625 130.851562 Z M 242.640625 130.851562 "/>
<path style=" stroke:none;fill-rule:nonzero;fill:rgb(18.431373%,18.039216%,25.490196%);fill-opacity:1;" d="M 257.777344 110.6875 C 259.207031 110.332031 260.6875 110.230469 262.152344 110.390625 C 263.320312 110.519531 264.527344 110.84375 265.378906 111.65625 C 266.417969 112.644531 266.753906 114.171875 266.78125 115.605469 C 266.828125 118.464844 265.882812 121.25 264.105469 123.484375 C 263.671875 124.050781 263.15625 124.546875 262.574219 124.960938 C 261.949219 125.355469 261.28125 125.675781 260.585938 125.921875 L 245.132812 132.03125 C 241.066406 133.636719 236.984375 135.25 232.746094 136.308594 C 232.511719 136.421875 232.242188 136.433594 231.996094 136.347656 C 231.753906 136.257812 231.554688 136.074219 231.445312 135.835938 C 230.09375 133.898438 228.957031 131.816406 228.058594 129.628906 C 227.972656 129.523438 227.945312 129.382812 227.980469 129.25 C 228.019531 129.117188 228.117188 129.011719 228.246094 128.96875 L 239.175781 122.675781 C 239.976562 122.257812 240.722656 121.742188 241.398438 121.140625 C 241.871094 120.679688 242.257812 120.140625 242.542969 119.546875 C 242.769531 119.070312 242.789062 117.953125 243.078125 117.601562 C 243.363281 117.257812 244.332031 117.230469 244.777344 117.097656 C 245.410156 116.902344 246.027344 116.667969 246.628906 116.394531 C 249.074219 115.300781 251.253906 113.707031 253.597656 112.421875 C 254.910156 111.671875 256.316406 111.085938 257.777344 110.6875 Z M 257.777344 110.6875 "/>
<use xlink:href="#surface17" mask="url(#mask4)"/>
<path style=" stroke:none;fill-rule:nonzero;fill:rgb(81.568627%,80.392157%,88.235294%);fill-opacity:1;" d="M 238.660156 69.335938 L 222.175781 69.335938 C 220.78125 69.335938 219.648438 70.46875 219.648438 71.863281 L 219.648438 72.792969 L 219.472656 72.792969 L 219.472656 74.863281 L 219.648438 74.863281 L 219.648438 76.3125 L 219.472656 76.3125 L 219.472656 77.558594 L 219.648438 77.558594 L 219.648438 92.847656 C 219.648438 94.246094 220.78125 95.378906 222.175781 95.378906 L 238.660156 95.378906 C 240.054688 95.378906 241.183594 94.246094 241.183594 92.847656 L 241.183594 71.863281 C 241.183594 70.46875 240.054688 69.335938 238.660156 69.335938 Z M 238.660156 69.335938 "/>
<path style=" stroke:none;fill-rule:nonzero;fill:rgb(18.431373%,18.039216%,25.490196%);fill-opacity:1;" d="M 241.277344 49.789062 L 232.917969 45.402344 L 221.371094 47.195312 L 218.984375 57.769531 L 224.929688 57.539062 L 226.589844 53.65625 L 226.589844 57.476562 L 229.335938 57.371094 L 230.929688 51.1875 L 231.921875 57.769531 L 241.675781 57.570312 Z M 241.277344 49.789062 "/>
<path style=" stroke:none;fill-rule:nonzero;fill:rgb(62.745098%,38.039216%,41.568627%);fill-opacity:1;" d="M 212.882812 109.320312 C 213.257812 109.964844 213.796875 110.5 214.441406 110.875 C 215.300781 111.269531 216.289062 111.242188 217.125 110.804688 C 217.949219 110.363281 218.621094 109.683594 219.058594 108.859375 C 219.96875 107.25 220.15625 105.328125 220.042969 103.484375 C 219.929688 101.636719 219.539062 99.824219 219.363281 97.984375 C 219.238281 96.644531 219.226562 95.300781 219.214844 93.957031 C 219.183594 93.675781 219.246094 93.390625 219.386719 93.144531 C 219.628906 92.902344 219.941406 92.742188 220.28125 92.695312 C 222.117188 92.148438 223.332031 90.425781 224.207031 88.71875 C 224.789062 87.582031 225.292969 86.335938 225.183594 85.0625 C 225.070312 83.785156 224.15625 82.5 222.882812 82.371094 C 221.835938 82.265625 220.871094 82.929688 220.113281 83.667969 C 218.207031 85.53125 216.980469 87.984375 216.636719 90.632812 C 216.46875 91.929688 216.515625 93.261719 216.164062 94.519531 C 215.414062 97.207031 213.0625 98.855469 211.890625 101.273438 C 210.601562 103.9375 211.3125 106.960938 212.882812 109.320312 Z M 212.882812 109.320312 "/>
<path style=" stroke:none;fill-rule:nonzero;fill:rgb(62.745098%,38.039216%,41.568627%);fill-opacity:1;" d="M 247.476562 99.054688 C 246.9375 100.3125 245.910156 101.300781 244.632812 101.789062 C 243.847656 102.105469 242.980469 102.160156 242.164062 101.941406 C 241.339844 101.710938 240.671875 101.113281 240.351562 100.320312 C 240.226562 99.925781 240.160156 99.515625 240.148438 99.101562 C 240.03125 97.289062 240.078125 95.421875 240.734375 93.726562 C 240.988281 93.074219 241.328125 92.457031 241.527344 91.785156 C 241.726562 91.011719 241.824219 90.214844 241.828125 89.414062 L 242.042969 84.46875 C 242.078125 84.109375 242.054688 83.746094 241.972656 83.398438 C 241.753906 82.679688 241.089844 82.214844 240.476562 81.789062 C 238.996094 80.757812 237.535156 79.558594 236.820312 77.902344 C 236.574219 77.402344 236.484375 76.839844 236.566406 76.289062 C 236.769531 75.308594 237.757812 74.671875 238.734375 74.457031 C 240.027344 74.175781 241.378906 74.433594 242.476562 75.171875 C 243.574219 75.914062 244.324219 77.070312 244.550781 78.375 C 244.644531 78.933594 244.644531 79.503906 244.703125 80.066406 C 244.820312 81.261719 245.199219 82.414062 245.4375 83.589844 C 246.019531 86.492188 245.71875 89.492188 246.296875 92.390625 C 246.777344 94.816406 248.597656 96.398438 247.476562 99.054688 Z M 247.476562 99.054688 "/>
<path style=" stroke:none;fill-rule:nonzero;fill:rgb(42.352941%,38.823529%,100%);fill-opacity:1;" d="M 232.707031 78.386719 C 232.707031 79.53125 231.78125 80.457031 230.636719 80.457031 C 229.496094 80.457031 228.570312 79.53125 228.570312 78.386719 C 228.570312 77.242188 229.496094 76.3125 230.636719 76.3125 C 231.78125 76.3125 232.707031 77.242188 232.707031 78.386719 Z M 232.707031 78.386719 "/>
<path style=" stroke:none;fill-rule:nonzero;fill:rgb(18.431373%,18.039216%,25.490196%);fill-opacity:1;" d="M 12.199219 146.75 C 12.199219 150.125 9.46875 152.863281 6.101562 152.863281 C 2.730469 152.863281 0 150.125 0 146.75 C 0 143.371094 2.730469 140.636719 6.101562 140.636719 C 9.46875 140.636719 12.199219 143.371094 12.199219 146.75 Z M 12.199219 146.75 "/>
<path style=" stroke:none;fill-rule:nonzero;fill:rgb(98.431373%,74.509804%,74.509804%);fill-opacity:1;" d="M 28.210938 164.894531 L 25.140625 161.902344 L 18.96875 163.824219 L 19.5625 170.980469 L 32.25 170.390625 L 28.351562 165.085938 Z M 28.210938 164.894531 "/>
<path style=" stroke:none;fill-rule:nonzero;fill:rgb(98.431373%,74.509804%,74.509804%);fill-opacity:1;" d="M 31.355469 154.953125 C 31.355469 160.410156 26.9375 164.832031 21.492188 164.832031 C 16.046875 164.832031 11.628906 160.410156 11.628906 154.953125 C 11.628906 149.492188 16.046875 145.070312 21.492188 145.070312 C 26.9375 145.070312 31.355469 149.492188 31.355469 154.953125 Z M 31.355469 154.953125 "/>
<path style=" stroke:none;fill-rule:nonzero;fill:rgb(18.431373%,18.039216%,25.490196%);fill-opacity:1;" d="M 82.71875 177.578125 C 82.71875 177.578125 94.832031 198.445312 97.71875 201.578125 C 99.089844 203.117188 100.550781 204.578125 102.09375 205.945312 C 102.09375 205.945312 100.734375 210.453125 98.578125 210.289062 C 97.347656 210.214844 96.140625 209.917969 95.015625 209.410156 C 95.015625 209.410156 94.050781 206.910156 92.371094 205.8125 C 90.691406 204.714844 76.957031 191.175781 77.28125 186.847656 C 77.601562 182.523438 82.71875 177.578125 82.71875 177.578125 Z M 82.71875 177.578125 "/>
<path style=" stroke:none;fill-rule:nonzero;fill:rgb(18.431373%,18.039216%,25.490196%);fill-opacity:1;" d="M 39.570312 207.355469 C 39.570312 207.355469 52.488281 217.402344 70.042969 207.960938 L 71.558594 206.84375 C 71.558594 206.84375 69.003906 212.601562 68.765625 214.160156 C 68.492188 215.972656 61.84375 226.570312 60.757812 227.078125 C 59.675781 227.585938 59.4375 228.054688 59.4375 228.054688 L 64.039062 233.132812 L 65.742188 231.875 C 65.742188 231.875 72.378906 222.453125 74.320312 220.730469 C 76.261719 219.007812 85.507812 201.230469 85.507812 201.230469 C 85.507812 201.230469 89.046875 194.53125 80.21875 194.027344 C 71.394531 193.523438 67.335938 195.933594 67.335938 195.933594 L 51.671875 198.429688 Z M 39.570312 207.355469 "/>
<path style=" stroke:none;fill-rule:nonzero;fill:rgb(18.431373%,18.039216%,25.490196%);fill-opacity:1;" d="M 102.242188 204.960938 L 108.777344 209.488281 C 108.777344 209.488281 117.113281 212.105469 111.976562 213.847656 C 106.84375 215.589844 93.308594 216.21875 93.003906 213.816406 C 92.695312 211.414062 93.539062 207.632812 94.210938 207.839844 C 94.886719 208.046875 99.574219 209.265625 102.242188 204.960938 Z M 102.242188 204.960938 "/>
<path style=" stroke:none;fill-rule:nonzero;fill:rgb(18.431373%,18.039216%,25.490196%);fill-opacity:1;" d="M 66.320312 230.320312 L 67.527344 236.976562 C 67.527344 236.976562 70.96875 243.566406 66.839844 241.519531 C 62.710938 239.476562 54.203125 231.707031 55.460938 230.078125 C 56.714844 228.453125 59.488281 226.683594 59.769531 227.214844 C 60.050781 227.746094 62.136719 231.300781 66.320312 230.320312 Z M 66.320312 230.320312 "/>
<path style=" stroke:none;fill-rule:nonzero;fill:rgb(100%,100%,100%);fill-opacity:1;" d="M 53.859375 200.613281 C 53.859375 200.613281 45.078125 210.886719 39.746094 208.390625 C 34.417969 205.894531 12.605469 176.988281 15.09375 171.648438 C 17.585938 166.304688 18.421875 167.441406 18.421875 167.441406 L 29.683594 168.484375 L 26.441406 163.277344 C 26.441406 163.277344 27.957031 162.164062 29.398438 163.730469 C 30.839844 165.296875 36.628906 169.207031 38.644531 174.730469 C 40.660156 180.257812 46.578125 179.980469 46.578125 179.980469 Z M 53.859375 200.613281 "/>
<path style=" stroke:none;fill-rule:nonzero;fill:rgb(24.705882%,23.921569%,33.72549%);fill-opacity:1;" d="M 89.324219 179.429688 L 74.101562 195.621094 L 60.464844 171.496094 L 73.429688 155.800781 Z M 89.324219 179.429688 "/>
<path style=" stroke:none;fill-rule:nonzero;fill:rgb(100%,100%,100%);fill-opacity:1;" d="M 88.175781 179.253906 L 74.425781 193.480469 L 61.964844 171.554688 L 73.390625 157.140625 Z M 88.175781 179.253906 "/>
<path style=" stroke:none;fill-rule:nonzero;fill:rgb(70.196078%,70.196078%,70.196078%);fill-opacity:1;" d="M 73.355469 195 L 74.101562 195.621094 L 73.621094 196.558594 L 52.335938 202.90625 L 52.136719 202.175781 L 53.105469 201.171875 Z M 73.355469 195 "/>
<path style=" stroke:none;fill-rule:nonzero;fill:rgb(81.568627%,80.392157%,88.235294%);fill-opacity:1;" d="M 74.289062 195.480469 L 52.246094 202.386719 L 38.8125 176.945312 L 60.464844 171.496094 Z M 74.289062 195.480469 "/>
<path style=" stroke:none;fill-rule:nonzero;fill:rgb(24.705882%,23.921569%,33.72549%);fill-opacity:1;" d="M 72.628906 192.03125 L 71.683594 192.726562 L 61.1875 174.464844 L 62.273438 173.957031 Z M 72.628906 192.03125 "/>
<path style=" stroke:none;fill-rule:nonzero;fill:rgb(24.705882%,23.921569%,33.72549%);fill-opacity:1;" d="M 70.460938 193.046875 L 61.136719 195.832031 L 50.550781 177.050781 L 59.777344 174.925781 Z M 70.460938 193.046875 "/>
<path style=" stroke:none;fill-rule:nonzero;fill:rgb(98.431373%,74.509804%,74.509804%);fill-opacity:1;" d="M 44.191406 179.113281 L 46.125 178.566406 C 46.125 178.566406 56.890625 177.34375 57.046875 180.734375 C 57.203125 184.125 44.679688 182.550781 44.679688 182.550781 L 43.007812 180.277344 Z M 44.191406 179.113281 "/>
<path style=" stroke:none;fill-rule:nonzero;fill:rgb(98.431373%,74.509804%,74.509804%);fill-opacity:1;" d="M 53.636719 194.351562 L 56.324219 193.246094 C 56.324219 193.246094 64.433594 189.601562 62.105469 187.226562 C 59.78125 184.855469 52.605469 188.976562 52.605469 188.976562 L 51.230469 190.28125 Z M 53.636719 194.351562 "/>
<path style=" stroke:none;fill-rule:nonzero;fill:rgb(100%,100%,100%);fill-opacity:1;" d="M 51.242188 189.105469 C 51.242188 189.105469 55.617188 193.476562 54.621094 194.503906 C 53.625 195.527344 37.300781 209.027344 33.253906 204.707031 C 29.207031 200.390625 9.488281 178.703125 17.160156 176.84375 C 24.832031 174.984375 26.859375 179.332031 26.859375 179.332031 L 36.988281 196.695312 Z M 51.242188 189.105469 "/>
<path style=" stroke:none;fill-rule:nonzero;fill:rgb(100%,100%,100%);fill-opacity:1;" d="M 38.140625 175.832031 L 45.328125 178.273438 L 45.210938 183.476562 L 37.609375 182.652344 Z M 38.140625 175.832031 "/>
<use xlink:href="#surface20" mask="url(#mask5)"/>
<path style=" stroke:none;fill-rule:nonzero;fill:rgb(18.431373%,18.039216%,25.490196%);fill-opacity:1;" d="M 28.90625 152.085938 C 28.90625 158.585938 23.648438 163.851562 17.164062 163.851562 C 10.679688 163.851562 5.421875 158.585938 5.421875 152.085938 C 5.421875 145.589844 10.679688 140.320312 17.164062 140.320312 C 23.648438 140.320312 28.90625 145.589844 28.90625 152.085938 Z M 28.90625 152.085938 "/>
<path style=" stroke:none;fill-rule:nonzero;fill:rgb(42.352941%,38.823529%,100%);fill-opacity:1;" d="M 80.601562 180.453125 L 72.378906 168.402344 L 75.867188 164.082031 L 84.40625 176.480469 Z M 80.601562 180.453125 "/>
<path style=" stroke:none;fill-rule:nonzero;fill:rgb(90.196078%,90.196078%,90.196078%);fill-opacity:1;" d="M 80.371094 185.300781 L 67.855469 167.066406 L 68.472656 166.320312 L 80.929688 184.597656 Z M 80.371094 185.300781 "/>
<path style=" stroke:none;fill-rule:nonzero;fill:rgb(90.196078%,90.196078%,90.196078%);fill-opacity:1;" d="M 78.757812 187.074219 L 66.242188 168.839844 L 66.859375 168.09375 L 79.316406 186.371094 Z M 78.757812 187.074219 "/>
<path style=" stroke:none;fill-rule:nonzero;fill:rgb(90.196078%,90.196078%,90.196078%);fill-opacity:1;" d="M 77.382812 188.378906 L 64.867188 170.148438 L 65.484375 169.398438 L 77.941406 187.675781 Z M 77.382812 188.378906 "/>
<path style=" stroke:none;fill-rule:nonzero;fill:rgb(18.431373%,18.039216%,25.490196%);fill-opacity:1;" d="M 22.363281 144.230469 L 25.996094 144.230469 C 29.824219 144.230469 32.929688 147.34375 32.929688 151.179688 L 22.363281 151.179688 Z M 22.363281 144.230469 "/>
<path style=" stroke:none;fill-rule:nonzero;fill:rgb(24.705882%,23.921569%,33.72549%);fill-opacity:1;" d="M 72.394531 139.808594 L 71.734375 139.761719 C 71.710938 140.105469 71.691406 140.449219 71.667969 140.792969 L 68.714844 140.695312 L 71.8125 146.515625 L 75.296875 140.914062 L 72.328125 140.816406 C 72.351562 140.480469 72.367188 140.144531 72.394531 139.808594 Z M 72.394531 139.808594 "/>
<path style=" stroke:none;fill-rule:nonzero;fill:rgb(24.705882%,23.921569%,33.72549%);fill-opacity:1;" d="M 89.726562 92.359375 L 90.253906 92.761719 C 91.039062 91.726562 91.863281 90.695312 92.695312 89.695312 L 92.191406 89.269531 C 91.347656 90.277344 90.519531 91.316406 89.726562 92.359375 Z M 89.726562 92.359375 "/>
<path style=" stroke:none;fill-rule:nonzero;fill:rgb(24.705882%,23.921569%,33.72549%);fill-opacity:1;" d="M 94.785156 86.292969 L 95.273438 86.738281 C 96.148438 85.777344 97.058594 84.824219 97.976562 83.902344 L 97.507812 83.433594 C 96.585938 84.363281 95.667969 85.324219 94.785156 86.292969 Z M 94.785156 86.292969 "/>
<path style=" stroke:none;fill-rule:nonzero;fill:rgb(24.705882%,23.921569%,33.72549%);fill-opacity:1;" d="M 100.355469 80.699219 L 100.800781 81.183594 C 101.757812 80.304688 102.75 79.433594 103.742188 78.597656 L 103.316406 78.089844 C 102.316406 78.933594 101.320312 79.808594 100.355469 80.699219 Z M 100.355469 80.699219 "/>
<path style=" stroke:none;fill-rule:nonzero;fill:rgb(24.705882%,23.921569%,33.72549%);fill-opacity:1;" d="M 85.21875 98.851562 L 85.777344 99.203125 C 86.472656 98.105469 87.203125 97.003906 87.945312 95.933594 L 87.402344 95.554688 C 86.652344 96.632812 85.917969 97.742188 85.21875 98.851562 Z M 85.21875 98.851562 "/>
<path style=" stroke:none;fill-rule:nonzero;fill:rgb(24.705882%,23.921569%,33.72549%);fill-opacity:1;" d="M 106.390625 75.617188 L 106.792969 76.140625 C 107.824219 75.347656 108.886719 74.566406 109.945312 73.824219 L 109.566406 73.28125 C 108.5 74.03125 107.429688 74.816406 106.390625 75.617188 Z M 106.390625 75.617188 "/>
<path style=" stroke:none;fill-rule:nonzero;fill:rgb(24.705882%,23.921569%,33.72549%);fill-opacity:1;" d="M 81.300781 105.71875 L 81.890625 106.023438 C 82.484375 104.863281 83.113281 103.699219 83.757812 102.570312 L 83.183594 102.242188 C 82.535156 103.378906 81.902344 104.550781 81.300781 105.71875 Z M 81.300781 105.71875 "/>
<path style=" stroke:none;fill-rule:nonzero;fill:rgb(24.705882%,23.921569%,33.72549%);fill-opacity:1;" d="M 74.933594 124.34375 L 74.292969 124.179688 C 73.964844 125.449219 73.664062 126.746094 73.394531 128.027344 L 74.042969 128.164062 C 74.308594 126.890625 74.609375 125.605469 74.933594 124.34375 Z M 74.933594 124.34375 "/>
<path style=" stroke:none;fill-rule:nonzero;fill:rgb(24.705882%,23.921569%,33.72549%);fill-opacity:1;" d="M 112.84375 71.089844 L 113.199219 71.648438 C 114.292969 70.949219 115.417969 70.265625 116.542969 69.617188 L 116.214844 69.042969 C 115.082031 69.699219 113.949219 70.386719 112.84375 71.089844 Z M 112.84375 71.089844 "/>
<path style=" stroke:none;fill-rule:nonzero;fill:rgb(24.705882%,23.921569%,33.72549%);fill-opacity:1;" d="M 73.320312 132.019531 L 72.667969 131.914062 C 72.457031 133.207031 72.269531 134.523438 72.113281 135.824219 L 72.769531 135.902344 C 72.925781 134.609375 73.109375 133.304688 73.320312 132.019531 Z M 73.320312 132.019531 "/>
<path style=" stroke:none;fill-rule:nonzero;fill:rgb(24.705882%,23.921569%,33.72549%);fill-opacity:1;" d="M 78.003906 112.914062 L 78.617188 113.160156 C 79.105469 111.953125 79.628906 110.742188 80.175781 109.554688 L 79.574219 109.277344 C 79.027344 110.472656 78.5 111.695312 78.003906 112.914062 Z M 78.003906 112.914062 "/>
<path style=" stroke:none;fill-rule:nonzero;fill:rgb(24.705882%,23.921569%,33.72549%);fill-opacity:1;" d="M 75.359375 120.375 L 75.992188 120.570312 C 76.375 119.320312 76.785156 118.0625 77.222656 116.835938 L 76.601562 116.613281 C 76.160156 117.851562 75.746094 119.117188 75.359375 120.375 Z M 75.359375 120.375 "/>
<path style=" stroke:none;fill-rule:nonzero;fill:rgb(24.705882%,23.921569%,33.72549%);fill-opacity:1;" d="M 157.515625 57.898438 C 158.808594 57.855469 160.128906 57.835938 161.433594 57.847656 L 161.4375 57.1875 C 160.125 57.175781 158.796875 57.191406 157.492188 57.238281 Z M 157.515625 57.898438 "/>
<path style=" stroke:none;fill-rule:nonzero;fill:rgb(24.705882%,23.921569%,33.72549%);fill-opacity:1;" d="M 119.671875 67.152344 L 119.972656 67.738281 C 121.128906 67.140625 122.308594 66.558594 123.484375 66.015625 L 123.207031 65.414062 C 122.023438 65.964844 120.832031 66.546875 119.671875 67.152344 Z M 119.671875 67.152344 "/>
<path style=" stroke:none;fill-rule:nonzero;fill:rgb(24.705882%,23.921569%,33.72549%);fill-opacity:1;" d="M 173.140625 58.722656 C 174.429688 58.90625 175.730469 59.121094 177.003906 59.359375 L 177.125 58.710938 C 175.839844 58.46875 174.53125 58.253906 173.234375 58.070312 Z M 173.140625 58.722656 "/>
<path style=" stroke:none;fill-rule:nonzero;fill:rgb(24.705882%,23.921569%,33.72549%);fill-opacity:1;" d="M 180.835938 60.167969 C 182.101562 60.464844 183.378906 60.792969 184.628906 61.144531 L 184.808594 60.507812 C 183.546875 60.152344 182.261719 59.820312 180.988281 59.523438 Z M 180.835938 60.167969 "/>
<path style=" stroke:none;fill-rule:nonzero;fill:rgb(24.705882%,23.921569%,33.72549%);fill-opacity:1;" d="M 188.375 62.289062 C 189.609375 62.699219 190.847656 63.140625 192.066406 63.601562 L 192.300781 62.984375 C 191.074219 62.519531 189.824219 62.074219 188.582031 61.664062 Z M 188.375 62.289062 "/>
<path style=" stroke:none;fill-rule:nonzero;fill:rgb(24.705882%,23.921569%,33.72549%);fill-opacity:1;" d="M 165.347656 57.96875 C 166.648438 58.039062 167.960938 58.136719 169.253906 58.261719 L 169.316406 57.601562 C 168.015625 57.476562 166.691406 57.375 165.382812 57.308594 Z M 165.347656 57.96875 "/>
<path style=" stroke:none;fill-rule:nonzero;fill:rgb(24.705882%,23.921569%,33.72549%);fill-opacity:1;" d="M 149.632812 57.855469 L 149.710938 58.515625 C 151 58.355469 152.308594 58.222656 153.605469 58.121094 L 153.554688 57.460938 C 152.246094 57.5625 150.925781 57.695312 149.632812 57.855469 Z M 149.632812 57.855469 "/>
<path style=" stroke:none;fill-rule:nonzero;fill:rgb(24.705882%,23.921569%,33.72549%);fill-opacity:1;" d="M 134.226562 61.167969 L 134.421875 61.800781 C 135.664062 61.414062 136.929688 61.050781 138.1875 60.722656 L 138.019531 60.082031 C 136.753906 60.414062 135.476562 60.78125 134.226562 61.167969 Z M 134.226562 61.167969 "/>
<path style=" stroke:none;fill-rule:nonzero;fill:rgb(24.705882%,23.921569%,33.72549%);fill-opacity:1;" d="M 126.8125 63.835938 L 127.0625 64.449219 C 128.265625 63.953125 129.492188 63.480469 130.707031 63.042969 L 130.484375 62.421875 C 129.257812 62.863281 128.023438 63.339844 126.8125 63.835938 Z M 126.8125 63.835938 "/>
<path style=" stroke:none;fill-rule:nonzero;fill:rgb(24.705882%,23.921569%,33.72549%);fill-opacity:1;" d="M 141.855469 59.167969 L 141.992188 59.816406 C 143.261719 59.542969 144.554688 59.296875 145.839844 59.078125 L 145.730469 58.425781 C 144.4375 58.644531 143.132812 58.894531 141.855469 59.167969 Z M 141.855469 59.167969 "/>
<path style=" stroke:none;fill-rule:nonzero;fill:rgb(24.705882%,23.921569%,33.72549%);fill-opacity:1;" d="M 201.917969 67.695312 L 198.226562 62.230469 L 196.929688 64.90625 C 196.617188 64.765625 196.304688 64.621094 195.988281 64.484375 L 195.726562 65.09375 C 196.035156 65.226562 196.335938 65.363281 196.640625 65.5 L 195.351562 68.164062 Z M 201.917969 67.695312 "/>
</g>
</svg>
